<svg xmlns="http://www.w3.org/2000/svg" xmlns:xlink="http://www.w3.org/1999/xlink" viewBox="0 0 654.89 262.28"><defs><style>.cls-1{fill:url(#linear-gradient);}.cls-2{clip-path:url(#clip-path);}.cls-3{fill:#0da4de;}.cls-4{fill:url(#linear-gradient-4);}</style><linearGradient id="linear-gradient" x1="476.74" y1="185.01" x2="476.74" y2="245.54" gradientUnits="userSpaceOnUse"><stop offset="0.6" stop-color="#8fc642"/><stop offset="0.67" stop-color="#85c243"/><stop offset="0.79" stop-color="#6ab744"/><stop offset="0.93" stop-color="#3fa647"/><stop offset="1" stop-color="#299d48"/></linearGradient><clipPath id="clip-path"><path class="cls-1" d="M401.93,198.76c13.1,0,13.37,10.41,13.37,17h-28c0-9.39,2.45-17,14.63-17m-31.2,20.48v10.87c0,22.29,12.8,32.17,30.93,32.17,14.23,0,23.53-5.58,27.78-14.28a14.54,14.54,0,0,0,1.73-6.18c0-2.51-.37-3.21-3.47-3.21h-9.49c-1.94,0-3.25.79-3.75,2.37-1.58,5-5.61,7.23-12.39,7.23-10.51,0-14.77-5.32-14.77-19.23v-.7h40.4c3.75,0,4.45-.92,4.45-4V217.7c0-20.66-9.66-32.31-30.36-32.31-20.05,0-31.06,12.1-31.06,33.85m101.55-20.48c13.08,0,13.37,10.41,13.37,17h-28c0-9.39,2.45-17,14.64-17m-31.23,20.48v10.87c0,22.29,12.82,32.17,30.95,32.17,14.23,0,23.54-5.58,27.77-14.28a14.32,14.32,0,0,0,1.75-6.18c0-2.51-1.22-3.21-4.31-3.21h-8.64c-2,0-3.26.79-3.75,2.37-1.61,5-5.63,7.23-12.42,7.23-10.49,0-14.76-5.32-14.76-19.23v-.7H498c3.76,0,4.44-.92,4.44-4V217.7c0-20.66-9.66-32.31-30.35-32.31-20.05,0-31.08,12.1-31.08,33.85M542.53,238.7c0-8,4-11.09,13.11-11.09a106.9,106.9,0,0,1,14.2.87v6.3c0,10-3,14.72-12.67,14.72H554.8c-8.87,0-12.27-3.72-12.27-10.8m-13.36-35.07c0,2.22,1.12,3.08,3.9,3.08h9.06a6.62,6.62,0,0,0,3.06-.49,3.88,3.88,0,0,0,1.39-2.17c1.6-4.64,5.68-5.89,11-5.89,9.67,0,12.25,5,12.25,13.89v3.63c-8.1-.91-18.28-1.42-26.06.37-10.74,2.48-17.4,9.61-17.4,22.79q0,12.36,7,17.91t21.8,5.53h3.89c19.27,0,26.76-9.85,26.76-24V210.92c0-18-7.79-25.53-28.28-25.53-25.38,0-28.42,13.45-28.42,18.24M510.5,171.32v2.23c0,2.72.91,6.88,4.85,8l1.93.58s-5.11,11.68-7.52,17.38c-.26.58.15.66.51.66h5.14c3.19,0,3.54-.7,4.81-3.2l4.35-8.4c3.17-6.18,4.95-10.1,4.95-13.94v-3.35c0-5.94-4.33-8.4-9.5-8.4s-9.52,2.41-9.52,8.4M314.9,229.26V218.55q0-19.11,15-19.09,15.19,0,15.2,19.09v10.71q0,19.08-15.2,19.09-15,0-15-19.09m-12.29-68.09c-3.33,0-4,.86-4,4v65.3c0,9.9,2.54,17.73,7.6,23.36s13,8.41,23.75,8.41c20.38,0,31.77-12.16,31.77-30.91V216.32c0-20.21-10.19-30.93-28.71-30.93q-11.58,0-17.82,6.26V165.21c0-3.18-.69-4-4-4Zm296.83,0c-3.33,0-4,.86-4,4v91.08c0,3.17.69,4,4,4H608c3.35,0,4-.85,4-4V215.48c0-8.79,4.21-15.62,14.07-15.62,7.6,0,12.24,2.77,12.24,13.25v43.18c0,3.17.69,4,4,4h8.52c3.34,0,4-.85,4-4V210.6c0-14.7-6.49-25.21-23.39-25.21-8.35,0-14.85,2.62-19.49,7.79v-28c0-3.18-.68-4-4-4Z"/></clipPath><linearGradient id="linear-gradient-4" x1="476.77" y1="10.54" x2="476.77" y2="93.25" xlink:href="#linear-gradient"/></defs><title>Asset 1</title><g id="Layer_2" data-name="Layer 2"><g id="Layer_1-2" data-name="Layer 1"><path class="cls-1" d="M401.93,198.76c13.1,0,13.37,10.41,13.37,17h-28c0-9.39,2.45-17,14.63-17m-31.2,20.48v10.87c0,22.29,12.8,32.17,30.93,32.17,14.23,0,23.53-5.58,27.78-14.28a14.54,14.54,0,0,0,1.73-6.18c0-2.51-.37-3.21-3.47-3.21h-9.49c-1.94,0-3.25.79-3.75,2.37-1.58,5-5.61,7.23-12.39,7.23-10.51,0-14.77-5.32-14.77-19.23v-.7h40.4c3.75,0,4.45-.92,4.45-4V217.7c0-20.66-9.66-32.31-30.36-32.31-20.05,0-31.06,12.1-31.06,33.85m101.55-20.48c13.08,0,13.37,10.41,13.37,17h-28c0-9.39,2.45-17,14.64-17m-31.23,20.48v10.87c0,22.29,12.82,32.17,30.95,32.17,14.23,0,23.54-5.58,27.77-14.28a14.32,14.32,0,0,0,1.75-6.18c0-2.51-1.22-3.21-4.31-3.21h-8.64c-2,0-3.26.79-3.75,2.37-1.61,5-5.63,7.23-12.42,7.23-10.49,0-14.76-5.32-14.76-19.23v-.7H498c3.76,0,4.44-.92,4.44-4V217.7c0-20.66-9.66-32.31-30.35-32.31-20.05,0-31.08,12.1-31.08,33.85M542.53,238.7c0-8,4-11.09,13.11-11.09a106.9,106.9,0,0,1,14.2.87v6.3c0,10-3,14.72-12.67,14.72H554.8c-8.87,0-12.27-3.72-12.27-10.8m-13.36-35.07c0,2.22,1.12,3.08,3.9,3.08h9.06a6.62,6.62,0,0,0,3.06-.49,3.88,3.88,0,0,0,1.39-2.17c1.6-4.64,5.68-5.89,11-5.89,9.67,0,12.25,5,12.25,13.89v3.63c-8.1-.91-18.28-1.42-26.06.37-10.74,2.48-17.4,9.61-17.4,22.79q0,12.36,7,17.91t21.8,5.53h3.89c19.27,0,26.76-9.85,26.76-24V210.92c0-18-7.79-25.53-28.28-25.53-25.38,0-28.42,13.45-28.42,18.24M510.5,171.32v2.23c0,2.72.91,6.88,4.85,8l1.93.58s-5.11,11.68-7.52,17.38c-.26.58.15.66.51.66h5.14c3.19,0,3.54-.7,4.81-3.2l4.35-8.4c3.17-6.18,4.95-10.1,4.95-13.94v-3.35c0-5.94-4.33-8.4-9.5-8.4s-9.52,2.41-9.52,8.4M314.9,229.26V218.55q0-19.11,15-19.09,15.19,0,15.2,19.09v10.71q0,19.08-15.2,19.09-15,0-15-19.09m-12.29-68.09c-3.33,0-4,.86-4,4v65.3c0,9.9,2.54,17.73,7.6,23.36s13,8.41,23.75,8.41c20.38,0,31.77-12.16,31.77-30.91V216.32c0-20.21-10.19-30.93-28.71-30.93q-11.58,0-17.82,6.26V165.21c0-3.18-.69-4-4-4Zm296.83,0c-3.33,0-4,.86-4,4v91.08c0,3.17.69,4,4,4H608c3.35,0,4-.85,4-4V215.48c0-8.79,4.21-15.62,14.07-15.62,7.6,0,12.24,2.77,12.24,13.25v43.18c0,3.17.69,4,4,4h8.52c3.34,0,4-.85,4-4V210.6c0-14.7-6.49-25.21-23.39-25.21-8.35,0-14.85,2.62-19.49,7.79v-28c0-3.18-.68-4-4-4Z"/><g class="cls-2"><rect class="cls-1" x="298.59" y="161.17" width="356.3" height="101.11"/></g><path class="cls-3" d="M171.15,164.61a6.69,6.69,0,1,0-6.67,6.69,6.68,6.68,0,0,0,6.67-6.69"/><path class="cls-3" d="M200.63,162.58a9.07,9.07,0,1,0-9.06,9.08,9.06,9.06,0,0,0,9.06-9.08"/><path class="cls-3" d="M221,142a11.85,11.85,0,1,0,11.83,11.86A11.88,11.88,0,0,0,221,142"/><path class="cls-3" d="M248.43,122.64a13.86,13.86,0,1,0,13.85,13.86,13.88,13.88,0,0,0-13.85-13.86"/><path class="cls-3" d="M183.09,136a6.69,6.69,0,1,0-9.46,0,6.68,6.68,0,0,0,9.46,0"/><path class="cls-3" d="M202.52,117.08a9.07,9.07,0,1,0-12.83,0,9.09,9.09,0,0,0,12.83,0"/><path class="cls-3" d="M219.15,92.09a11.85,11.85,0,1,0-16.76,0,11.89,11.89,0,0,0,16.76,0"/><path class="cls-3" d="M227.65,61.81a13.86,13.86,0,1,0-19.59,0,13.88,13.88,0,0,0,19.59,0"/><path class="cls-3" d="M157.91,97.83a6.7,6.7,0,1,0,6.69-6.7,6.7,6.7,0,0,0-6.69,6.7"/><path class="cls-3" d="M153.54,70.73a9.06,9.06,0,1,0,9.05-9.06,9.07,9.07,0,0,0-9.05,9.06"/><path class="cls-3" d="M153.9,53.14A11.85,11.85,0,1,0,142,41.31,11.86,11.86,0,0,0,153.9,53.14"/><path class="cls-3" d="M136.5,27.73a13.86,13.86,0,1,0-13.86-13.86A13.88,13.88,0,0,0,136.5,27.73"/><path class="cls-3" d="M136,79.2a6.69,6.69,0,1,0,0,9.45,6.71,6.71,0,0,0,0-9.45"/><path class="cls-3" d="M117.06,72.61a9.07,9.07,0,1,0-12.82,0,9.06,9.06,0,0,0,12.82,0"/><path class="cls-3" d="M92.08,59.89a11.85,11.85,0,1,0-16.76,0,11.85,11.85,0,0,0,16.76,0"/><path class="cls-3" d="M61.8,54.23a13.86,13.86,0,1,0-19.61,0,13.89,13.89,0,0,0,19.61,0"/><path class="cls-3" d="M91.13,97.71A6.69,6.69,0,1,0,97.82,91a6.69,6.69,0,0,0-6.69,6.71"/><path class="cls-3" d="M70.72,90.63a9.07,9.07,0,1,0,9.08,9.08,9.09,9.09,0,0,0-9.08-9.08"/><path class="cls-3" d="M41.29,120.26a11.86,11.86,0,1,0-11.86-11.85,11.88,11.88,0,0,0,11.86,11.85"/><path class="cls-3" d="M13.86,111.93a13.86,13.86,0,1,0,13.86,13.86,13.89,13.89,0,0,0-13.86-13.86"/><path class="cls-3" d="M79.19,126.33a6.69,6.69,0,1,0,9.45,0,6.68,6.68,0,0,0-9.45,0"/><path class="cls-3" d="M59.77,145.23a9.06,9.06,0,1,0,12.83,0,9.06,9.06,0,0,0-12.83,0"/><path class="cls-3" d="M43.15,170.24a11.85,11.85,0,1,0,16.75,0,11.84,11.84,0,0,0-16.75,0"/><path class="cls-3" d="M34.63,200.5a13.86,13.86,0,1,0,19.6,0,13.86,13.86,0,0,0-19.6,0"/><path class="cls-3" d="M97.69,157.79a6.69,6.69,0,1,0,6.68,6.69,6.68,6.68,0,0,0-6.68-6.69"/><path class="cls-3" d="M108.76,191.56a9.06,9.06,0,1,0-9.06,9.07,9.06,9.06,0,0,0,9.06-9.07"/><path class="cls-3" d="M120.25,221a11.85,11.85,0,1,0-11.86,11.86A11.86,11.86,0,0,0,120.25,221"/><path class="cls-3" d="M125.79,234.58a13.85,13.85,0,1,0,13.86,13.85,13.86,13.86,0,0,0-13.86-13.85"/><path class="cls-3" d="M126.32,173.65a6.69,6.69,0,1,0,9.46,0,6.67,6.67,0,0,0-9.46,0"/><path class="cls-3" d="M145.22,189.69a9.07,9.07,0,1,0,12.82,0,9.08,9.08,0,0,0-12.82,0"/><path class="cls-3" d="M170.22,202.37a11.86,11.86,0,1,0,16.76,0,11.87,11.87,0,0,0-16.76,0"/><path class="cls-3" d="M200.49,208.07a13.85,13.85,0,1,0,19.6,0,13.86,13.86,0,0,0-19.6,0"/><path class="cls-4" d="M544.1,131.11a10.85,10.85,0,1,0,10.84-10.86,10.86,10.86,0,0,0-10.84,10.86m27.65,0a10.85,10.85,0,1,0,10.83-10.86,10.86,10.86,0,0,0-10.83,10.86m59.17,0a10.85,10.85,0,1,0,10.86-10.86,10.87,10.87,0,0,0-10.86,10.86M315.23,77.91V75.45c0-12.73,4.06-19.1,14.19-19.1s14.18,6.37,14.18,19.1v2.46c0,12.74-4,19.1-14.18,19.1s-14.19-6.36-14.19-19.1m-16.57-4.56V80c0,18.77,10.38,30.93,30.76,30.93,9,0,16-2.36,21.07-6.6,4.06,3.73,10.31,6.6,24.59,6.6h92.44c14.06,0,19.89-2.36,24.4-6,4.51,3.68,10.33,6,24.39,6h28.12c14.07,0,19.89-2.36,24.4-6,4.51,3.68,10.34,6,24.4,6h28.61c18.1,0,33-3.93,33-32.16V43.21a53.66,53.66,0,0,0-18.19,0V77c0,6.06.64,18.94-12.94,18.94H591.63c-6.3,0-13.72-1.16-13.72-16.84V43.21a53.61,53.61,0,0,0-18.18,0V79.12C559.73,94.8,552.31,96,546,96H514.7C508.42,96,501,94.8,501,79.12V43.21a53.61,53.61,0,0,0-18.18,0V79.12c0,15.68-7.42,16.84-13.72,16.84H373.9c-6.28,0-13.71-1.16-13.71-16.84V73.35c0-18.75-10.39-30.93-30.76-30.93S298.66,54.6,298.66,73.35m5.69-49.82A10.85,10.85,0,1,0,315.2,12.67a10.88,10.88,0,0,0-10.85,10.86m27.66,0a10.85,10.85,0,1,0,10.84-10.86A10.86,10.86,0,0,0,332,23.53M497.08.28c-2.48.5-10.26,2-10.26,15.12,0,3.27,0,7.57-8.47,7.57h-3.08a29.41,29.41,0,0,0,0,9.08h3c5.85,0,9.63-1.16,12.29-3.76,2.74,2.52,6.27,3.76,12.33,3.76h5.6a25.19,25.19,0,0,0,0-9.08h-5.34c-6.24,0-8.83-1.73-8.83-6.86,0-6,1.57-8.82,6.83-8.82h3a21.4,21.4,0,0,0,0-7.23S502.9,0,501.4,0a26.2,26.2,0,0,0-4.32.28"/></g></g></svg>