<?xml version="1.0" encoding="utf-8"?>
<!-- Generator: Adobe Illustrator 24.0.3, SVG Export Plug-In . SVG Version: 6.00 Build 0)  -->
<svg version="1.1" id="Layer_1" xmlns="http://www.w3.org/2000/svg" xmlns:xlink="http://www.w3.org/1999/xlink" x="0px" y="0px"
	 viewBox="0 0 679.1 272" style="enable-background:new 0 0 679.1 272;" xml:space="preserve">
<style type="text/css">
	.st0{fill:#FFFFFF;}
	.st1{clip-path:url(#SVGID_3_);}
</style>
<title>Asset 1</title>
<g>
	<g id="Layer_1-2">
		<path class="st0" d="M414,203.7c13.1,0,13.4,10.4,13.4,17h-28C399.4,211.2,401.9,203.7,414,203.7 M382.8,224.1v10.9
			c0,22.3,12.8,32.2,30.9,32.2c14.2,0,23.5-5.6,27.8-14.3c1-1.9,1.6-4,1.7-6.2c0-2.5-0.4-3.2-3.5-3.2h-9.5c-1.9,0-3.2,0.8-3.8,2.4
			c-1.6,5-5.6,7.2-12.4,7.2c-10.5,0-14.8-5.3-14.8-19.2v-0.7h40.4c3.8,0,4.5-0.9,4.5-4v-6.6c0-20.7-9.7-32.3-30.4-32.3
			C393.8,190.2,382.8,202.4,382.8,224.1 M484.4,203.7c13.1,0,13.4,10.4,13.4,17h-28C469.7,211.2,472.2,203.7,484.4,203.7
			 M453.2,224.1v10.9c0,22.3,12.8,32.2,31,32.2c14.2,0,23.5-5.6,27.8-14.3c1-1.9,1.6-4,1.8-6.2c0-2.5-1.2-3.2-4.3-3.2h-8.6
			c-2,0-3.3,0.8-3.8,2.4c-1.6,5-5.6,7.2-12.4,7.2c-10.5,0-14.8-5.3-14.8-19.2v-0.7h40.2c3.8,0,4.4-0.9,4.4-4v-6.6
			c0-20.7-9.7-32.3-30.4-32.3C464.1,190.2,453.1,202.4,453.2,224.1 M554.6,243.6c0-8,4-11.1,13.1-11.1c4.7,0,9.5,0.3,14.2,0.9v6.3
			c0,10-3,14.7-12.7,14.7h-2.4C558,254.4,554.6,250.7,554.6,243.6 M541.3,208.5c0,2.2,1.1,3.1,3.9,3.1h9.1c1,0.1,2.1-0.1,3.1-0.5
			c0.7-0.5,1.2-1.3,1.4-2.2c1.6-4.6,5.7-5.9,11-5.9c9.7,0,12.2,5,12.2,13.9v3.6c-8.1-0.9-18.3-1.4-26.1,0.4
			c-10.7,2.5-17.4,9.6-17.4,22.8c0,8.2,2.3,14.2,7,17.9c4.7,3.7,11.9,5.5,21.8,5.5h3.9c19.3,0,26.8-9.9,26.8-24v-27.4
			c0-18-7.8-25.5-28.3-25.5C544.3,190.2,541.2,203.7,541.3,208.5 M522.6,176.2v2.2c0,2.7,0.9,6.9,4.8,8l1.9,0.6
			c0,0-5.1,11.7-7.5,17.4c-0.3,0.6,0.1,0.7,0.5,0.7h5.1c3.2,0,3.5-0.7,4.8-3.2l4.3-8.4c3.2-6.2,5-10.1,5-13.9v-3.4
			c0-5.9-4.3-8.4-9.5-8.4S522.6,170.2,522.6,176.2 M327,234.2v-10.7c0-12.7,5-19.1,15-19.1c10.1,0,15.2,6.4,15.2,19.1v10.7
			c0,12.7-5.1,19.1-15.2,19.1C332,253.2,327,246.9,327,234.2 M314.7,166.1c-3.3,0-4,0.9-4,4v65.3c0,9.9,2.5,17.7,7.6,23.4
			c5.1,5.7,13,8.4,23.8,8.4c20.4,0,31.8-12.2,31.8-30.9v-15c0-20.2-10.2-30.9-28.7-30.9c-7.7,0-13.7,2.1-17.8,6.3v-26.4
			c0-3.2-0.7-4-4-4L314.7,166.1z M611.5,166.1c-3.3,0-4,0.9-4,4v91.1c0,3.2,0.7,4,4,4h8.6c3.3,0,4-0.9,4-4v-40.8
			c0-8.8,4.2-15.6,14.1-15.6c7.6,0,12.2,2.8,12.2,13.2v43.2c0,3.2,0.7,4,4,4h8.5c3.3,0,4-0.9,4-4v-45.7c0-14.7-6.5-25.2-23.4-25.2
			c-8.3,0-14.8,2.6-19.5,7.8v-28c0-3.2-0.7-4-4-4H611.5z"/>
		<g>
			<g>
				<path id="SVGID_1_" class="st0" d="M414,203.7c13.1,0,13.4,10.4,13.4,17h-28C399.4,211.2,401.9,203.7,414,203.7 M382.8,224.1
					v10.9c0,22.3,12.8,32.2,30.9,32.2c14.2,0,23.5-5.6,27.8-14.3c1-1.9,1.6-4,1.7-6.2c0-2.5-0.4-3.2-3.5-3.2h-9.5
					c-1.9,0-3.2,0.8-3.8,2.4c-1.6,5-5.6,7.2-12.4,7.2c-10.5,0-14.8-5.3-14.8-19.2v-0.7h40.4c3.8,0,4.5-0.9,4.5-4v-6.6
					c0-20.7-9.7-32.3-30.4-32.3C393.8,190.2,382.8,202.4,382.8,224.1 M484.4,203.7c13.1,0,13.4,10.4,13.4,17h-28
					C469.7,211.2,472.2,203.7,484.4,203.7 M453.2,224.1v10.9c0,22.3,12.8,32.2,31,32.2c14.2,0,23.5-5.6,27.8-14.3
					c1-1.9,1.6-4,1.8-6.2c0-2.5-1.2-3.2-4.3-3.2h-8.6c-2,0-3.3,0.8-3.8,2.4c-1.6,5-5.6,7.2-12.4,7.2c-10.5,0-14.8-5.3-14.8-19.2
					v-0.7h40.2c3.8,0,4.4-0.9,4.4-4v-6.6c0-20.7-9.7-32.3-30.4-32.3C464.1,190.2,453.1,202.4,453.2,224.1 M554.6,243.6
					c0-8,4-11.1,13.1-11.1c4.7,0,9.5,0.3,14.2,0.9v6.3c0,10-3,14.7-12.7,14.7h-2.4C558,254.4,554.6,250.7,554.6,243.6 M541.3,208.5
					c0,2.2,1.1,3.1,3.9,3.1h9.1c1,0.1,2.1-0.1,3.1-0.5c0.7-0.5,1.2-1.3,1.4-2.2c1.6-4.6,5.7-5.9,11-5.9c9.7,0,12.2,5,12.2,13.9v3.6
					c-8.1-0.9-18.3-1.4-26.1,0.4c-10.7,2.5-17.4,9.6-17.4,22.8c0,8.2,2.3,14.2,7,17.9c4.7,3.7,11.9,5.5,21.8,5.5h3.9
					c19.3,0,26.8-9.9,26.8-24v-27.4c0-18-7.8-25.5-28.3-25.5C544.3,190.2,541.2,203.7,541.3,208.5 M522.6,176.2v2.2
					c0,2.7,0.9,6.9,4.8,8l1.9,0.6c0,0-5.1,11.7-7.5,17.4c-0.3,0.6,0.1,0.7,0.5,0.7h5.1c3.2,0,3.5-0.7,4.8-3.2l4.3-8.4
					c3.2-6.2,5-10.1,5-13.9v-3.4c0-5.9-4.3-8.4-9.5-8.4S522.6,170.2,522.6,176.2 M327,234.2v-10.7c0-12.7,5-19.1,15-19.1
					c10.1,0,15.2,6.4,15.2,19.1v10.7c0,12.7-5.1,19.1-15.2,19.1C332,253.2,327,246.9,327,234.2 M314.7,166.1c-3.3,0-4,0.9-4,4v65.3
					c0,9.9,2.5,17.7,7.6,23.4c5.1,5.7,13,8.4,23.8,8.4c20.4,0,31.8-12.2,31.8-30.9v-15c0-20.2-10.2-30.9-28.7-30.9
					c-7.7,0-13.7,2.1-17.8,6.3v-26.4c0-3.2-0.7-4-4-4L314.7,166.1z M611.5,166.1c-3.3,0-4,0.9-4,4v91.1c0,3.2,0.7,4,4,4h8.6
					c3.3,0,4-0.9,4-4v-40.8c0-8.8,4.2-15.6,14.1-15.6c7.6,0,12.2,2.8,12.2,13.2v43.2c0,3.2,0.7,4,4,4h8.5c3.3,0,4-0.9,4-4v-45.7
					c0-14.7-6.5-25.2-23.4-25.2c-8.3,0-14.8,2.6-19.5,7.8v-28c0-3.2-0.7-4-4-4H611.5z"/>
			</g>
			<g>
				<defs>
					<path id="SVGID_2_" d="M414,203.7c13.1,0,13.4,10.4,13.4,17h-28C399.4,211.2,401.9,203.7,414,203.7 M382.8,224.1v10.9
						c0,22.3,12.8,32.2,30.9,32.2c14.2,0,23.5-5.6,27.8-14.3c1-1.9,1.6-4,1.7-6.2c0-2.5-0.4-3.2-3.5-3.2h-9.5
						c-1.9,0-3.2,0.8-3.8,2.4c-1.6,5-5.6,7.2-12.4,7.2c-10.5,0-14.8-5.3-14.8-19.2v-0.7h40.4c3.8,0,4.5-0.9,4.5-4v-6.6
						c0-20.7-9.7-32.3-30.4-32.3C393.8,190.2,382.8,202.4,382.8,224.1 M484.4,203.7c13.1,0,13.4,10.4,13.4,17h-28
						C469.7,211.2,472.2,203.7,484.4,203.7 M453.2,224.1v10.9c0,22.3,12.8,32.2,31,32.2c14.2,0,23.5-5.6,27.8-14.3
						c1-1.9,1.6-4,1.8-6.2c0-2.5-1.2-3.2-4.3-3.2h-8.6c-2,0-3.3,0.8-3.8,2.4c-1.6,5-5.6,7.2-12.4,7.2c-10.5,0-14.8-5.3-14.8-19.2
						v-0.7h40.2c3.8,0,4.4-0.9,4.4-4v-6.6c0-20.7-9.7-32.3-30.4-32.3C464.1,190.2,453.1,202.4,453.2,224.1 M554.6,243.6
						c0-8,4-11.1,13.1-11.1c4.7,0,9.5,0.3,14.2,0.9v6.3c0,10-3,14.7-12.7,14.7h-2.4C558,254.4,554.6,250.7,554.6,243.6 M541.3,208.5
						c0,2.2,1.1,3.1,3.9,3.1h9.1c1,0.1,2.1-0.1,3.1-0.5c0.7-0.5,1.2-1.3,1.4-2.2c1.6-4.6,5.7-5.9,11-5.9c9.7,0,12.2,5,12.2,13.9v3.6
						c-8.1-0.9-18.3-1.4-26.1,0.4c-10.7,2.5-17.4,9.6-17.4,22.8c0,8.2,2.3,14.2,7,17.9c4.7,3.7,11.9,5.5,21.8,5.5h3.9
						c19.3,0,26.8-9.9,26.8-24v-27.4c0-18-7.8-25.5-28.3-25.5C544.3,190.2,541.2,203.7,541.3,208.5 M522.6,176.2v2.2
						c0,2.7,0.9,6.9,4.8,8l1.9,0.6c0,0-5.1,11.7-7.5,17.4c-0.3,0.6,0.1,0.7,0.5,0.7h5.1c3.2,0,3.5-0.7,4.8-3.2l4.3-8.4
						c3.2-6.2,5-10.1,5-13.9v-3.4c0-5.9-4.3-8.4-9.5-8.4S522.6,170.2,522.6,176.2 M327,234.2v-10.7c0-12.7,5-19.1,15-19.1
						c10.1,0,15.2,6.4,15.2,19.1v10.7c0,12.7-5.1,19.1-15.2,19.1C332,253.2,327,246.9,327,234.2 M314.7,166.1c-3.3,0-4,0.9-4,4v65.3
						c0,9.9,2.5,17.7,7.6,23.4c5.1,5.7,13,8.4,23.8,8.4c20.4,0,31.8-12.2,31.8-30.9v-15c0-20.2-10.2-30.9-28.7-30.9
						c-7.7,0-13.7,2.1-17.8,6.3v-26.4c0-3.2-0.7-4-4-4L314.7,166.1z M611.5,166.1c-3.3,0-4,0.9-4,4v91.1c0,3.2,0.7,4,4,4h8.6
						c3.3,0,4-0.9,4-4v-40.8c0-8.8,4.2-15.6,14.1-15.6c7.6,0,12.2,2.8,12.2,13.2v43.2c0,3.2,0.7,4,4,4h8.5c3.3,0,4-0.9,4-4v-45.7
						c0-14.7-6.5-25.2-23.4-25.2c-8.3,0-14.8,2.6-19.5,7.8v-28c0-3.2-0.7-4-4-4H611.5z"/>
				</defs>
				<clipPath id="SVGID_3_">
					<use xlink:href="#SVGID_2_"  style="overflow:visible;"/>
				</clipPath>
				<g class="st1">
					<rect x="310.7" y="166.1" class="st0" width="356.3" height="101.1"/>
				</g>
			</g>
		</g>
		<path class="st0" d="M183.2,169.5c0-3.7-3-6.7-6.7-6.7s-6.7,3-6.7,6.7s3,6.7,6.7,6.7l0,0C180.3,176.2,183.3,173.2,183.2,169.5
			L183.2,169.5"/>
		<path class="st0" d="M212.7,167.5c0-5-4.1-9.1-9.1-9.1s-9.1,4.1-9.1,9.1s4.1,9.1,9.1,9.1C208.7,176.6,212.7,172.5,212.7,167.5
			L212.7,167.5"/>
		<path class="st0" d="M233.1,146.9c-6.5,0-11.9,5.3-11.9,11.8s5.3,11.9,11.8,11.9s11.9-5.3,11.9-11.8l0,0
			C244.9,152.2,239.6,146.9,233.1,146.9"/>
		<path class="st0" d="M260.5,127.5c-7.7,0-13.9,6.2-13.9,13.9s6.2,13.9,13.9,13.9s13.9-6.2,13.9-13.8l0,0
			C274.4,133.8,268.2,127.6,260.5,127.5"/>
		<path class="st0" d="M195.2,140.9c2.6-2.6,2.6-6.8,0-9.5c-2.6-2.6-6.8-2.6-9.5,0c-2.7,2.6-2.6,6.8,0,9.5l0,0
			C188.3,143.5,192.6,143.5,195.2,140.9L195.2,140.9"/>
		<path class="st0" d="M214.6,122c3.5-3.5,3.5-9.3,0-12.8s-9.3-3.5-12.8,0s-3.5,9.3,0,12.8S211.1,125.5,214.6,122"/>
		<path class="st0" d="M231.2,97c4.6-4.6,4.6-12.1,0-16.8c-4.6-4.6-12.1-4.6-16.8,0c-4.6,4.6-4.6,12.1,0,16.8
			C219.1,101.6,226.6,101.6,231.2,97"/>
		<path class="st0" d="M239.7,66.7c5.4-5.4,5.4-14.2,0-19.6s-14.2-5.4-19.6,0s-5.4,14.2,0,19.6l0,0
			C225.6,72.1,234.3,72.1,239.7,66.7"/>
		<path class="st0" d="M170,102.7c0,3.7,3,6.7,6.7,6.7s6.7-3,6.7-6.7s-3-6.7-6.7-6.7l0,0C173,96,170,99,170,102.7"/>
		<path class="st0" d="M165.6,75.6c0,5,4.1,9.1,9.1,9.1s9.1-4.1,9.1-9.1s-4.1-9.1-9.1-9.1l0,0C169.7,66.6,165.6,70.6,165.6,75.6"/>
		<path class="st0" d="M166,58c6.5,0,11.8-5.4,11.8-11.9s-5.4-11.8-11.9-11.8s-11.8,5.3-11.8,11.9C154.1,52.8,159.4,58.1,166,58
			L166,58"/>
		<path class="st0" d="M148.6,32.6c7.7,0,13.9-6.2,13.9-13.9s-6.2-13.8-13.9-13.8s-13.9,6.2-13.9,13.9
			C134.8,26.4,140.9,32.6,148.6,32.6"/>
		<path class="st0" d="M148.1,84.1c-2.6-2.6-6.8-2.6-9.5,0s-2.6,6.8,0,9.5c2.6,2.7,6.8,2.6,9.5,0l0,0
			C150.7,90.9,150.7,86.7,148.1,84.1"/>
		<path class="st0" d="M129.2,77.5c3.5-3.5,3.5-9.3,0-12.8c-3.5-3.5-9.3-3.5-12.8,0c-3.5,3.5-3.5,9.3,0,12.8l0,0
			C119.9,81.1,125.6,81.1,129.2,77.5L129.2,77.5"/>
		<path class="st0" d="M104.2,64.8c4.6-4.6,4.6-12.1,0-16.8c-4.6-4.6-12.1-4.6-16.8,0c-4.6,4.6-4.6,12.1,0,16.8
			C92,69.4,99.6,69.4,104.2,64.8L104.2,64.8"/>
		<path class="st0" d="M73.9,59.1c5.4-5.4,5.4-14.2,0-19.6c-5.4-5.4-14.2-5.4-19.6,0s-5.4,14.2,0,19.6S68.5,64.5,73.9,59.1"/>
		<path class="st0" d="M103.2,102.6c0,3.7,3,6.7,6.7,6.7s6.7-3,6.7-6.7s-3-6.7-6.7-6.7S103.2,98.9,103.2,102.6L103.2,102.6"/>
		<path class="st0" d="M82.8,95.5c-5,0-9.1,4.1-9.1,9.1s4.1,9.1,9.1,9.1s9.1-4.1,9.1-9.1C91.9,99.6,87.8,95.5,82.8,95.5"/>
		<path class="st0" d="M53.4,125.2c6.6,0,11.9-5.3,11.9-11.9s-5.3-11.9-11.9-11.9s-11.9,5.3-11.9,11.9l0,0
			C41.5,119.9,46.8,125.1,53.4,125.2"/>
		<path class="st0" d="M26,116.8c-7.7,0-13.9,6.2-13.9,13.9s6.2,13.9,13.9,13.9s13.9-6.2,13.9-13.9C39.8,123,33.6,116.8,26,116.8"/>
		<path class="st0" d="M91.3,131.2c-2.6,2.6-2.6,6.8,0,9.5c2.6,2.6,6.8,2.6,9.5,0s2.6-6.8,0-9.5l0,0
			C98.1,128.6,93.9,128.6,91.3,131.2L91.3,131.2"/>
		<path class="st0" d="M71.9,150.1c-3.5,3.5-3.5,9.3,0,12.8s9.3,3.5,12.8,0s3.5-9.3,0-12.8S75.4,146.6,71.9,150.1L71.9,150.1"/>
		<path class="st0" d="M55.3,175.1c-4.6,4.6-4.6,12.1,0,16.8c4.6,4.6,12.1,4.6,16.8,0s4.6-12.1,0-16.8l0,0
			C67.4,170.5,59.9,170.5,55.3,175.1L55.3,175.1"/>
		<path class="st0" d="M46.7,205.4c-5.4,5.4-5.4,14.2,0,19.6c5.4,5.4,14.2,5.4,19.6,0s5.4-14.2,0-19.6l0,0
			C60.9,200,52.1,200,46.7,205.4"/>
		<path class="st0" d="M109.8,162.7c-3.7,0-6.7,3-6.7,6.7s3,6.7,6.7,6.7s6.7-3,6.7-6.7l0,0C116.5,165.7,113.5,162.7,109.8,162.7
			L109.8,162.7"/>
		<path class="st0" d="M120.9,196.5c0-5-4.1-9.1-9.1-9c-5,0-9.1,4.1-9,9.1c0,5,4.1,9,9.1,9C116.8,205.5,120.9,201.5,120.9,196.5
			L120.9,196.5"/>
		<path class="st0" d="M132.3,225.9c0-6.5-5.3-11.8-11.9-11.8s-11.8,5.3-11.8,11.9c0,6.5,5.3,11.8,11.8,11.8
			C127,237.8,132.3,232.5,132.3,225.9L132.3,225.9"/>
		<path class="st0" d="M137.9,239.5c-7.6,0-13.8,6.2-13.8,13.9c0,7.6,6.2,13.8,13.9,13.8c7.6,0,13.8-6.2,13.8-13.8
			C151.7,245.7,145.5,239.5,137.9,239.5"/>
		<path class="st0" d="M138.4,178.5c-2.6,2.6-2.6,6.8,0,9.5c2.6,2.6,6.8,2.6,9.5,0s2.6-6.8,0-9.5l0,0
			C145.3,175.9,141.1,175.9,138.4,178.5L138.4,178.5"/>
		<path class="st0" d="M157.3,194.6c-3.5,3.5-3.5,9.3,0,12.8s9.3,3.5,12.8,0s3.5-9.3,0-12.8l0,0
			C166.6,191.1,160.9,191.1,157.3,194.6"/>
		<path class="st0" d="M182.3,207.2c-4.6,4.6-4.6,12.1,0,16.8s12.1,4.6,16.8,0s4.6-12.1,0-16.8l0,0
			C194.4,202.7,187,202.7,182.3,207.2"/>
		<path class="st0" d="M212.6,213c-5.4,5.4-5.4,14.2,0,19.6c5.4,5.4,14.2,5.4,19.6,0c5.4-5.4,5.4-14.2,0-19.6
			C226.8,207.6,218,207.6,212.6,213"/>
		<path class="st0" d="M556.2,136c0,6,4.9,10.8,10.9,10.8s10.8-4.9,10.8-10.9s-4.9-10.8-10.9-10.8C561.1,125.2,556.2,130,556.2,136
			 M583.9,136c0,6,4.9,10.8,10.9,10.8s10.8-4.9,10.8-10.9s-4.9-10.8-10.9-10.8l0,0C588.7,125.2,583.9,130,583.9,136 M643,136
			c0,6,4.9,10.8,10.9,10.8s10.8-4.9,10.8-10.9s-4.9-10.8-10.8-10.8C647.9,125.2,643,130,643,136 M327.3,82.8v-2.5
			c0-12.7,4.1-19.1,14.2-19.1s14.2,6.4,14.2,19.1v2.5c0,12.7-4,19.1-14.2,19.1S327.3,95.5,327.3,82.8 M310.8,78.2v6.7
			c0,18.8,10.4,30.9,30.8,30.9c9,0,16-2.4,21.1-6.6c4.1,3.7,10.3,6.6,24.6,6.6h92.4c14.1,0,19.9-2.4,24.4-6c4.5,3.7,10.3,6,24.4,6
			h28.1c14.1,0,19.9-2.4,24.4-6c4.5,3.7,10.3,6,24.4,6H634c18.1,0,33-3.9,33-32.2V48.1c-6-1-12.2-1-18.2,0v33.8
			c0,6.1,0.6,18.9-12.9,18.9h-32.1c-6.3,0-13.7-1.2-13.7-16.8V48.1c-6-1-12.2-1-18.2,0V84c0,15.7-7.4,16.9-13.7,16.9h-31.3
			c-6.3,0-13.7-1.2-13.7-16.9V48.1c-6-1-12.2-1-18.2,0V84c0,15.7-7.4,16.8-13.7,16.8h-95.2c-6.3,0-13.7-1.2-13.7-16.8v-5.8
			c0-18.8-10.4-30.9-30.8-30.9S310.8,59.5,310.8,78.2 M316.5,28.4c0,6,4.9,10.8,10.9,10.8s10.8-4.9,10.8-10.9s-4.9-10.8-10.8-10.8
			C321.3,17.6,316.5,22.4,316.5,28.4 M344.1,28.4c0,6,4.9,10.8,10.9,10.8s10.8-4.9,10.8-10.9s-4.9-10.8-10.9-10.8
			C349,17.6,344.1,22.4,344.1,28.4 M509.2,5.2c-2.5,0.5-10.3,2-10.3,15.1c0,3.3,0,7.6-8.5,7.6h-3.1c-0.5,3-0.5,6.1,0,9.1h3
			c5.9,0,9.6-1.2,12.3-3.8c2.7,2.5,6.3,3.8,12.3,3.8h5.6c0.5-3,0.5-6.1,0-9.1h-5.3c-6.2,0-8.8-1.7-8.8-6.9c0-6,1.6-8.8,6.8-8.8h3
			c0.4-2.4,0.4-4.8,0-7.2c0,0-1.2-0.1-2.8-0.1C512.1,4.9,510.6,5,509.2,5.2"/>
	</g>
</g>
</svg>
