<?xml version="1.0" encoding="utf-8"?>
<!-- Generator: Adobe Illustrator 23.1.1, SVG Export Plug-In . SVG Version: 6.00 Build 0)  -->
<svg version="1.1" id="Layer_1" xmlns="http://www.w3.org/2000/svg" xmlns:xlink="http://www.w3.org/1999/xlink" x="0px" y="0px"
	 viewBox="0 0 654.9 262.3" style="enable-background:new 0 0 654.9 262.3;" xml:space="preserve">
<style type="text/css">
	.st0{fill:#FFFFFF;}
	.st1{clip-path:url(#SVGID_2_);}
</style>
<title>Asset 1</title>
<g>
	<g id="Layer_1-2">
		<path class="st0" d="M401.9,198.8c13.1,0,13.4,10.4,13.4,17h-28C387.3,206.4,389.8,198.8,401.9,198.8 M370.7,219.2v10.9
			c0,22.3,12.8,32.2,30.9,32.2c14.2,0,23.5-5.6,27.8-14.3c1-1.9,1.6-4,1.7-6.2c0-2.5-0.4-3.2-3.5-3.2h-9.5c-1.9,0-3.2,0.8-3.8,2.4
			c-1.6,5-5.6,7.2-12.4,7.2c-10.5,0-14.8-5.3-14.8-19.2v-0.7h40.4c3.8,0,4.5-0.9,4.5-4v-6.6c0-20.7-9.7-32.3-30.4-32.3
			C381.7,185.4,370.7,197.5,370.7,219.2 M472.3,198.8c13.1,0,13.4,10.4,13.4,17h-28C457.6,206.4,460.1,198.8,472.3,198.8
			 M441.1,219.2v10.9c0,22.3,12.8,32.2,31,32.2c14.2,0,23.5-5.6,27.8-14.3c1-1.9,1.6-4,1.8-6.2c0-2.5-1.2-3.2-4.3-3.2h-8.6
			c-2,0-3.3,0.8-3.8,2.4c-1.6,5-5.6,7.2-12.4,7.2c-10.5,0-14.8-5.3-14.8-19.2v-0.7H498c3.8,0,4.4-0.9,4.4-4v-6.6
			c0-20.7-9.7-32.3-30.4-32.3C452,185.4,441,197.5,441.1,219.2 M542.5,238.7c0-8,4-11.1,13.1-11.1c4.7,0,9.5,0.3,14.2,0.9v6.3
			c0,10-3,14.7-12.7,14.7h-2.4C545.9,249.5,542.5,245.8,542.5,238.7 M529.2,203.6c0,2.2,1.1,3.1,3.9,3.1h9.1c1,0.1,2.1-0.1,3.1-0.5
			c0.7-0.5,1.2-1.3,1.4-2.2c1.6-4.6,5.7-5.9,11-5.9c9.7,0,12.2,5,12.2,13.9v3.6c-8.1-0.9-18.3-1.4-26.1,0.4
			c-10.7,2.5-17.4,9.6-17.4,22.8c0,8.2,2.3,14.2,7,17.9c4.7,3.7,11.9,5.5,21.8,5.5h3.9c19.3,0,26.8-9.9,26.8-24v-27.4
			c0-18-7.8-25.5-28.3-25.5C532.2,185.4,529.1,198.8,529.2,203.6 M510.5,171.3v2.2c0,2.7,0.9,6.9,4.8,8l1.9,0.6
			c0,0-5.1,11.7-7.5,17.4c-0.3,0.6,0.1,0.7,0.5,0.7h5.1c3.2,0,3.5-0.7,4.8-3.2l4.3-8.4c3.2-6.2,5-10.1,5-13.9v-3.4
			c0-5.9-4.3-8.4-9.5-8.4S510.5,165.3,510.5,171.3 M314.9,229.3v-10.7c0-12.7,5-19.1,15-19.1c10.1,0,15.2,6.4,15.2,19.1v10.7
			c0,12.7-5.1,19.1-15.2,19.1C319.9,248.4,314.9,242,314.9,229.3 M302.6,161.2c-3.3,0-4,0.9-4,4v65.3c0,9.9,2.5,17.7,7.6,23.4
			s13,8.4,23.8,8.4c20.4,0,31.8-12.2,31.8-30.9v-15c0-20.2-10.2-30.9-28.7-30.9c-7.7,0-13.7,2.1-17.8,6.3v-26.4c0-3.2-0.7-4-4-4
			L302.6,161.2z M599.4,161.2c-3.3,0-4,0.9-4,4v91.1c0,3.2,0.7,4,4,4h8.6c3.3,0,4-0.9,4-4v-40.8c0-8.8,4.2-15.6,14.1-15.6
			c7.6,0,12.2,2.8,12.2,13.2v43.2c0,3.2,0.7,4,4,4h8.5c3.3,0,4-0.9,4-4v-45.7c0-14.7-6.5-25.2-23.4-25.2c-8.3,0-14.8,2.6-19.5,7.8
			v-28c0-3.2-0.7-4-4-4L599.4,161.2z"/>
		<g>
			<defs>
				<path id="SVGID_1_" d="M401.9,198.8c13.1,0,13.4,10.4,13.4,17h-28C387.3,206.4,389.8,198.8,401.9,198.8 M370.7,219.2v10.9
					c0,22.3,12.8,32.2,30.9,32.2c14.2,0,23.5-5.6,27.8-14.3c1-1.9,1.6-4,1.7-6.2c0-2.5-0.4-3.2-3.5-3.2h-9.5c-1.9,0-3.2,0.8-3.8,2.4
					c-1.6,5-5.6,7.2-12.4,7.2c-10.5,0-14.8-5.3-14.8-19.2v-0.7h40.4c3.8,0,4.5-0.9,4.5-4v-6.6c0-20.7-9.7-32.3-30.4-32.3
					C381.7,185.4,370.7,197.5,370.7,219.2 M472.3,198.8c13.1,0,13.4,10.4,13.4,17h-28C457.6,206.4,460.1,198.8,472.3,198.8
					 M441.1,219.2v10.9c0,22.3,12.8,32.2,31,32.2c14.2,0,23.5-5.6,27.8-14.3c1-1.9,1.6-4,1.8-6.2c0-2.5-1.2-3.2-4.3-3.2h-8.6
					c-2,0-3.3,0.8-3.8,2.4c-1.6,5-5.6,7.2-12.4,7.2c-10.5,0-14.8-5.3-14.8-19.2v-0.7H498c3.8,0,4.4-0.9,4.4-4v-6.6
					c0-20.7-9.7-32.3-30.4-32.3C452,185.4,441,197.5,441.1,219.2 M542.5,238.7c0-8,4-11.1,13.1-11.1c4.7,0,9.5,0.3,14.2,0.9v6.3
					c0,10-3,14.7-12.7,14.7h-2.4C545.9,249.5,542.5,245.8,542.5,238.7 M529.2,203.6c0,2.2,1.1,3.1,3.9,3.1h9.1
					c1,0.1,2.1-0.1,3.1-0.5c0.7-0.5,1.2-1.3,1.4-2.2c1.6-4.6,5.7-5.9,11-5.9c9.7,0,12.2,5,12.2,13.9v3.6c-8.1-0.9-18.3-1.4-26.1,0.4
					c-10.7,2.5-17.4,9.6-17.4,22.8c0,8.2,2.3,14.2,7,17.9c4.7,3.7,11.9,5.5,21.8,5.5h3.9c19.3,0,26.8-9.9,26.8-24v-27.4
					c0-18-7.8-25.5-28.3-25.5C532.2,185.4,529.1,198.8,529.2,203.6 M510.5,171.3v2.2c0,2.7,0.9,6.9,4.8,8l1.9,0.6
					c0,0-5.1,11.7-7.5,17.4c-0.3,0.6,0.1,0.7,0.5,0.7h5.1c3.2,0,3.5-0.7,4.8-3.2l4.3-8.4c3.2-6.2,5-10.1,5-13.9v-3.4
					c0-5.9-4.3-8.4-9.5-8.4S510.5,165.3,510.5,171.3 M314.9,229.3v-10.7c0-12.7,5-19.1,15-19.1c10.1,0,15.2,6.4,15.2,19.1v10.7
					c0,12.7-5.1,19.1-15.2,19.1C319.9,248.4,314.9,242,314.9,229.3 M302.6,161.2c-3.3,0-4,0.9-4,4v65.3c0,9.9,2.5,17.7,7.6,23.4
					s13,8.4,23.8,8.4c20.4,0,31.8-12.2,31.8-30.9v-15c0-20.2-10.2-30.9-28.7-30.9c-7.7,0-13.7,2.1-17.8,6.3v-26.4c0-3.2-0.7-4-4-4
					L302.6,161.2z M599.4,161.2c-3.3,0-4,0.9-4,4v91.1c0,3.2,0.7,4,4,4h8.6c3.3,0,4-0.9,4-4v-40.8c0-8.8,4.2-15.6,14.1-15.6
					c7.6,0,12.2,2.8,12.2,13.2v43.2c0,3.2,0.7,4,4,4h8.5c3.3,0,4-0.9,4-4v-45.7c0-14.7-6.5-25.2-23.4-25.2c-8.3,0-14.8,2.6-19.5,7.8
					v-28c0-3.2-0.7-4-4-4L599.4,161.2z"/>
			</defs>
			<use xlink:href="#SVGID_1_"  style="overflow:visible;fill:#FFFFFF;"/>
			<clipPath id="SVGID_2_">
				<use xlink:href="#SVGID_1_"  style="overflow:visible;"/>
			</clipPath>
			<g class="st1">
				<rect x="298.6" y="161.2" class="st0" width="356.3" height="101.1"/>
			</g>
		</g>
		<path class="st0" d="M171.1,164.6c0-3.7-3-6.7-6.7-6.7s-6.7,3-6.7,6.7c0,3.7,3,6.7,6.7,6.7c0,0,0,0,0,0
			C168.2,171.3,171.2,168.3,171.1,164.6L171.1,164.6"/>
		<path class="st0" d="M200.6,162.6c0-5-4.1-9.1-9.1-9.1s-9.1,4.1-9.1,9.1s4.1,9.1,9.1,9.1C196.6,171.7,200.6,167.6,200.6,162.6
			C200.6,162.6,200.6,162.6,200.6,162.6"/>
		<path class="st0" d="M221,142c-6.5,0-11.9,5.3-11.9,11.8c0,6.5,5.3,11.9,11.8,11.9c6.5,0,11.9-5.3,11.9-11.8c0,0,0,0,0,0
			C232.8,147.3,227.5,142,221,142"/>
		<path class="st0" d="M248.4,122.6c-7.7,0-13.9,6.2-13.9,13.9c0,7.7,6.2,13.9,13.9,13.9c7.7,0,13.9-6.2,13.9-13.8c0,0,0,0,0,0
			C262.3,128.9,256.1,122.7,248.4,122.6"/>
		<path class="st0" d="M183.1,136c2.6-2.6,2.6-6.8,0-9.5c-2.6-2.6-6.8-2.6-9.5,0s-2.6,6.8,0,9.5c0,0,0,0,0,0
			C176.2,138.6,180.5,138.6,183.1,136C183.1,136,183.1,136,183.1,136"/>
		<path class="st0" d="M202.5,117.1c3.5-3.5,3.5-9.3,0-12.8c-3.5-3.5-9.3-3.5-12.8,0c-3.5,3.5-3.5,9.3,0,12.8
			C193.2,120.6,199,120.6,202.5,117.1"/>
		<path class="st0" d="M219.1,92.1c4.6-4.6,4.6-12.1,0-16.8c-4.6-4.6-12.1-4.6-16.8,0c-4.6,4.6-4.6,12.1,0,16.8
			C207,96.7,214.5,96.7,219.1,92.1"/>
		<path class="st0" d="M227.6,61.8c5.4-5.4,5.4-14.2,0-19.6s-14.2-5.4-19.6,0s-5.4,14.2,0,19.6c0,0,0,0,0,0
			C213.5,67.2,222.2,67.2,227.6,61.8"/>
		<path class="st0" d="M157.9,97.8c0,3.7,3,6.7,6.7,6.7c3.7,0,6.7-3,6.7-6.7c0-3.7-3-6.7-6.7-6.7c0,0,0,0,0,0
			C160.9,91.1,157.9,94.1,157.9,97.8"/>
		<path class="st0" d="M153.5,70.7c0,5,4.1,9.1,9.1,9.1c5,0,9.1-4.1,9.1-9.1c0-5-4.1-9.1-9.1-9.1c0,0,0,0,0,0
			C157.6,61.7,153.5,65.7,153.5,70.7"/>
		<path class="st0" d="M153.9,53.1c6.5,0,11.8-5.4,11.8-11.9s-5.4-11.8-11.9-11.8c-6.5,0-11.8,5.3-11.8,11.9
			C142,47.9,147.3,53.2,153.9,53.1C153.9,53.1,153.9,53.1,153.9,53.1"/>
		<path class="st0" d="M136.5,27.7c7.7,0,13.9-6.2,13.9-13.9S144.2,0,136.5,0s-13.9,6.2-13.9,13.9C122.7,21.5,128.8,27.7,136.5,27.7
			"/>
		<path class="st0" d="M136,79.2c-2.6-2.6-6.8-2.6-9.5,0s-2.6,6.8,0,9.5s6.8,2.6,9.5,0c0,0,0,0,0,0C138.6,86,138.6,81.8,136,79.2"/>
		<path class="st0" d="M117.1,72.6c3.5-3.5,3.5-9.3,0-12.8s-9.3-3.5-12.8,0c-3.5,3.5-3.5,9.3,0,12.8c0,0,0,0,0,0
			C107.8,76.2,113.5,76.2,117.1,72.6C117.1,72.6,117.1,72.6,117.1,72.6"/>
		<path class="st0" d="M92.1,59.9c4.6-4.6,4.6-12.1,0-16.8c-4.6-4.6-12.1-4.6-16.8,0c-4.6,4.6-4.6,12.1,0,16.8
			C79.9,64.5,87.5,64.5,92.1,59.9C92.1,59.9,92.1,59.9,92.1,59.9"/>
		<path class="st0" d="M61.8,54.2c5.4-5.4,5.4-14.2,0-19.6s-14.2-5.4-19.6,0c-5.4,5.4-5.4,14.2,0,19.6
			C47.6,59.6,56.4,59.6,61.8,54.2"/>
		<path class="st0" d="M91.1,97.7c0,3.7,3,6.7,6.7,6.7c3.7,0,6.7-3,6.7-6.7c0-3.7-3-6.7-6.7-6.7C94.1,91,91.1,94,91.1,97.7
			C91.1,97.7,91.1,97.7,91.1,97.7"/>
		<path class="st0" d="M70.7,90.6c-5,0-9.1,4.1-9.1,9.1s4.1,9.1,9.1,9.1c5,0,9.1-4.1,9.1-9.1C79.8,94.7,75.7,90.6,70.7,90.6"/>
		<path class="st0" d="M41.3,120.3c6.6,0,11.9-5.3,11.9-11.9c0-6.6-5.3-11.9-11.9-11.9c-6.6,0-11.9,5.3-11.9,11.9c0,0,0,0,0,0
			C29.4,115,34.7,120.2,41.3,120.3"/>
		<path class="st0" d="M13.9,111.9c-7.7,0-13.9,6.2-13.9,13.9s6.2,13.9,13.9,13.9s13.9-6.2,13.9-13.9
			C27.7,118.1,21.5,111.9,13.9,111.9"/>
		<path class="st0" d="M79.2,126.3c-2.6,2.6-2.6,6.8,0,9.5c2.6,2.6,6.8,2.6,9.5,0s2.6-6.8,0-9.5c0,0,0,0,0,0
			C86,123.7,81.8,123.7,79.2,126.3C79.2,126.3,79.2,126.3,79.2,126.3"/>
		<path class="st0" d="M59.8,145.2c-3.5,3.5-3.5,9.3,0,12.8c3.5,3.5,9.3,3.5,12.8,0c3.5-3.5,3.5-9.3,0-12.8
			C69.1,141.7,63.3,141.7,59.8,145.2C59.8,145.2,59.8,145.2,59.8,145.2"/>
		<path class="st0" d="M43.2,170.2c-4.6,4.6-4.6,12.1,0,16.8c4.6,4.6,12.1,4.6,16.8,0s4.6-12.1,0-16.8c0,0,0,0,0,0
			C55.3,165.6,47.8,165.6,43.2,170.2C43.2,170.2,43.2,170.2,43.2,170.2"/>
		<path class="st0" d="M34.6,200.5c-5.4,5.4-5.4,14.2,0,19.6c5.4,5.4,14.2,5.4,19.6,0c5.4-5.4,5.4-14.2,0-19.6c0,0,0,0,0,0
			C48.8,195.1,40,195.1,34.6,200.5"/>
		<path class="st0" d="M97.7,157.8c-3.7,0-6.7,3-6.7,6.7c0,3.7,3,6.7,6.7,6.7c3.7,0,6.7-3,6.7-6.7c0,0,0,0,0,0
			C104.4,160.8,101.4,157.8,97.7,157.8C97.7,157.8,97.7,157.8,97.7,157.8"/>
		<path class="st0" d="M108.8,191.6c0-5-4.1-9.1-9.1-9c-5,0-9.1,4.1-9,9.1c0,5,4.1,9,9.1,9C104.7,200.6,108.8,196.6,108.8,191.6
			C108.8,191.6,108.8,191.6,108.8,191.6"/>
		<path class="st0" d="M120.2,221c0-6.5-5.3-11.8-11.9-11.8s-11.8,5.3-11.8,11.9c0,6.5,5.3,11.8,11.8,11.8
			C114.9,232.9,120.2,227.6,120.2,221L120.2,221"/>
		<path class="st0" d="M125.8,234.6c-7.6,0-13.8,6.2-13.8,13.9c0,7.6,6.2,13.8,13.9,13.8c7.6,0,13.8-6.2,13.8-13.8
			C139.6,240.8,133.4,234.6,125.8,234.6"/>
		<path class="st0" d="M126.3,173.6c-2.6,2.6-2.6,6.8,0,9.5c2.6,2.6,6.8,2.6,9.5,0s2.6-6.8,0-9.5c0,0,0,0,0,0
			C133.2,171,129,171,126.3,173.6C126.3,173.6,126.3,173.6,126.3,173.6"/>
		<path class="st0" d="M145.2,189.7c-3.5,3.5-3.5,9.3,0,12.8s9.3,3.5,12.8,0s3.5-9.3,0-12.8c0,0,0,0,0,0
			C154.5,186.2,148.8,186.2,145.2,189.7"/>
		<path class="st0" d="M170.2,202.4c-4.6,4.6-4.6,12.1,0,16.8s12.1,4.6,16.8,0s4.6-12.1,0-16.8c0,0,0,0,0,0
			C182.3,197.8,174.9,197.8,170.2,202.4"/>
		<path class="st0" d="M200.5,208.1c-5.4,5.4-5.4,14.2,0,19.6c5.4,5.4,14.2,5.4,19.6,0c5.4-5.4,5.4-14.2,0-19.6
			C214.7,202.7,205.9,202.7,200.5,208.1"/>
		<path class="st0" d="M544.1,131.1c0,6,4.9,10.8,10.9,10.8c6,0,10.8-4.9,10.8-10.9c0-6-4.9-10.8-10.9-10.8
			C549,120.3,544.1,125.1,544.1,131.1 M571.8,131.1c0,6,4.9,10.8,10.9,10.8c6,0,10.8-4.9,10.8-10.9c0-6-4.9-10.8-10.9-10.8
			c0,0,0,0,0,0C576.6,120.3,571.8,125.1,571.8,131.1 M630.9,131.1c0,6,4.9,10.8,10.9,10.8c6,0,10.8-4.9,10.8-10.9
			c0-6-4.9-10.8-10.8-10.8C635.8,120.3,630.9,125.1,630.9,131.1 M315.2,77.9v-2.5c0-12.7,4.1-19.1,14.2-19.1s14.2,6.4,14.2,19.1v2.5
			c0,12.7-4,19.1-14.2,19.1S315.2,90.6,315.2,77.9 M298.7,73.3V80c0,18.8,10.4,30.9,30.8,30.9c9,0,16-2.4,21.1-6.6
			c4.1,3.7,10.3,6.6,24.6,6.6h92.4c14.1,0,19.9-2.4,24.4-6c4.5,3.7,10.3,6,24.4,6h28.1c14.1,0,19.9-2.4,24.4-6
			c4.5,3.7,10.3,6,24.4,6h28.6c18.1,0,33-3.9,33-32.2V43.2c-6-1-12.2-1-18.2,0V77c0,6.1,0.6,18.9-12.9,18.9h-32.1
			c-6.3,0-13.7-1.2-13.7-16.8V43.2c-6-1-12.2-1-18.2,0v35.9c0,15.7-7.4,16.9-13.7,16.9h-31.3c-6.3,0-13.7-1.2-13.7-16.9V43.2
			c-6-1-12.2-1-18.2,0v35.9c0,15.7-7.4,16.8-13.7,16.8h-95.2c-6.3,0-13.7-1.2-13.7-16.8v-5.8c0-18.8-10.4-30.9-30.8-30.9
			S298.7,54.6,298.7,73.3 M304.4,23.5c0,6,4.9,10.8,10.9,10.8c6,0,10.8-4.9,10.8-10.9c0-6-4.9-10.8-10.8-10.8
			C309.2,12.7,304.4,17.5,304.4,23.5 M332,23.5c0,6,4.9,10.8,10.9,10.8c6,0,10.8-4.9,10.8-10.9s-4.9-10.8-10.9-10.8
			C336.9,12.7,332,17.5,332,23.5 M497.1,0.3c-2.5,0.5-10.3,2-10.3,15.1c0,3.3,0,7.6-8.5,7.6h-3.1c-0.5,3-0.5,6.1,0,9.1h3
			c5.9,0,9.6-1.2,12.3-3.8c2.7,2.5,6.3,3.8,12.3,3.8h5.6c0.5-3,0.5-6.1,0-9.1h-5.3c-6.2,0-8.8-1.7-8.8-6.9c0-6,1.6-8.8,6.8-8.8h3
			c0.4-2.4,0.4-4.8,0-7.2c0,0-1.2-0.1-2.8-0.1C500,0,498.5,0.1,497.1,0.3"/>
	</g>
</g>
</svg>
