<svg xmlns="http://www.w3.org/2000/svg" viewBox="0 0 262.28 262.26"><defs><style>.cls-1{fill:#0da4de;}</style></defs><title>Asset 2</title><g id="Layer_2" data-name="Layer 2"><g id="Layer_1-2" data-name="Layer 1"><path class="cls-1" d="M171.15,164.6a6.69,6.69,0,1,0-6.67,6.69,6.68,6.68,0,0,0,6.67-6.69"/><path class="cls-1" d="M200.63,162.57a9.07,9.07,0,1,0-9.06,9.08,9.07,9.07,0,0,0,9.06-9.08"/><path class="cls-1" d="M221,142a11.85,11.85,0,1,0,11.83,11.85A11.88,11.88,0,0,0,221,142"/><path class="cls-1" d="M248.43,122.63a13.86,13.86,0,1,0,13.85,13.86,13.88,13.88,0,0,0-13.85-13.86"/><path class="cls-1" d="M183.09,136a6.69,6.69,0,1,0-9.46,0,6.68,6.68,0,0,0,9.46,0"/><path class="cls-1" d="M202.52,117.07a9.07,9.07,0,1,0-12.83,0,9.1,9.1,0,0,0,12.83,0"/><path class="cls-1" d="M219.15,92.07a11.85,11.85,0,1,0-16.76,0,11.87,11.87,0,0,0,16.76,0"/><path class="cls-1" d="M227.65,61.79a13.86,13.86,0,1,0-19.59,0,13.88,13.88,0,0,0,19.59,0"/><path class="cls-1" d="M157.91,97.81a6.7,6.7,0,1,0,6.69-6.69,6.7,6.7,0,0,0-6.69,6.69"/><path class="cls-1" d="M153.54,70.72a9.06,9.06,0,1,0,9.05-9.06,9.06,9.06,0,0,0-9.05,9.06"/><path class="cls-1" d="M153.9,53.13A11.85,11.85,0,1,0,142,41.29,11.87,11.87,0,0,0,153.9,53.13"/><path class="cls-1" d="M136.5,27.72a13.86,13.86,0,1,0-13.86-13.86A13.88,13.88,0,0,0,136.5,27.72"/><path class="cls-1" d="M136,79.19a6.69,6.69,0,1,0,0,9.45,6.69,6.69,0,0,0,0-9.45"/><path class="cls-1" d="M117.06,72.59a9.07,9.07,0,1,0-12.82,0,9,9,0,0,0,12.82,0"/><path class="cls-1" d="M92.08,59.88a11.85,11.85,0,1,0-16.76,0,11.86,11.86,0,0,0,16.76,0"/><path class="cls-1" d="M61.8,54.22a13.86,13.86,0,1,0-19.61,0,13.9,13.9,0,0,0,19.61,0"/><path class="cls-1" d="M91.13,97.7A6.69,6.69,0,1,0,97.82,91a6.69,6.69,0,0,0-6.69,6.72"/><path class="cls-1" d="M70.72,90.61A9.08,9.08,0,1,0,79.8,99.7a9.1,9.1,0,0,0-9.08-9.09"/><path class="cls-1" d="M41.29,120.24a11.86,11.86,0,1,0-11.86-11.85,11.86,11.86,0,0,0,11.86,11.85"/><path class="cls-1" d="M13.86,111.92a13.86,13.86,0,1,0,13.86,13.85,13.88,13.88,0,0,0-13.86-13.85"/><path class="cls-1" d="M79.19,126.32a6.69,6.69,0,1,0,9.45,0,6.68,6.68,0,0,0-9.45,0"/><path class="cls-1" d="M59.77,145.21a9.07,9.07,0,1,0,12.83,0,9.07,9.07,0,0,0-12.83,0"/><path class="cls-1" d="M43.15,170.23a11.85,11.85,0,1,0,16.75,0,11.84,11.84,0,0,0-16.75,0"/><path class="cls-1" d="M34.63,200.48a13.86,13.86,0,1,0,19.6,0,13.87,13.87,0,0,0-19.6,0"/><path class="cls-1" d="M97.69,157.77a6.69,6.69,0,1,0,6.68,6.7,6.69,6.69,0,0,0-6.68-6.7"/><path class="cls-1" d="M108.76,191.55a9.06,9.06,0,1,0-9.06,9.07,9.06,9.06,0,0,0,9.06-9.07"/><path class="cls-1" d="M120.25,221a11.85,11.85,0,1,0-11.86,11.85A11.87,11.87,0,0,0,120.25,221"/><path class="cls-1" d="M125.79,234.57a13.85,13.85,0,1,0,13.86,13.85,13.86,13.86,0,0,0-13.86-13.85"/><path class="cls-1" d="M126.32,173.63a6.69,6.69,0,1,0,9.46,0,6.68,6.68,0,0,0-9.46,0"/><path class="cls-1" d="M145.22,189.68a9.07,9.07,0,1,0,12.82,0,9.08,9.08,0,0,0-12.82,0"/><path class="cls-1" d="M170.22,202.36a11.86,11.86,0,1,0,16.76,0,11.87,11.87,0,0,0-16.76,0"/><path class="cls-1" d="M200.49,208.06a13.85,13.85,0,1,0,19.6,0,13.86,13.86,0,0,0-19.6,0"/></g></g></svg>