<?xml version="1.0" encoding="utf-8"?>
<!-- Generator: Adobe Illustrator 23.0.2, SVG Export Plug-In . SVG Version: 6.00 Build 0)  -->
<svg version="1.1" id="Layer_1" xmlns="http://www.w3.org/2000/svg" xmlns:xlink="http://www.w3.org/1999/xlink" x="0px" y="0px"
	 viewBox="0 0 677.1 213.8" style="enable-background:new 0 0 677.1 213.8;" xml:space="preserve">
<style type="text/css">
	.st0{fill:#FFFFFF;}
	.st1{display:none;}
	.st2{display:inline;}
	.st3{fill:none;stroke:#E61088;stroke-width:1.8154;stroke-miterlimit:10;}
	.st4{fill:#77797B;}
	.st5{fill:#AADAF5;}
	.st6{opacity:0.59;fill:#F192BD;enable-background:new    ;}
</style>
<g id="Logo">
	<g>
		<g>
			<g>
				<path class="st0" d="M675.6,145h-8.2c-0.8,0-1.5,0.7-1.5,1.5v8.2c0,0.8,0.7,1.5,1.5,1.5h8.2c0.8,0,1.5-0.7,1.5-1.5v-8.2
					C677.1,145.7,676.5,145,675.6,145z"/>
				<path class="st0" d="M596.4,145h-8.2c-0.8,0-1.5,0.7-1.5,1.5v8.2c0,0.8,0.7,1.5,1.5,1.5h8.2c0.8,0,1.5-0.7,1.5-1.5v-8.2
					C597.9,145.7,597.2,145,596.4,145z"/>
				<path class="st0" d="M575.5,145h-8.2c-0.8,0-1.5,0.7-1.5,1.5v8.2c0,0.8,0.7,1.5,1.5,1.5h8.2c0.8,0,1.5-0.7,1.5-1.5v-8.2
					C577,145.7,576.3,145,575.5,145z"/>
				<path class="st0" d="M523.3,62.7h-11.6v-2.3c0-1.3,0.3-2.4,1-3.1c0.7-0.7,1.9-1.1,3.5-1.1h4.4v-3.8h-5c-3.3,0-5.9,0.8-7.8,2.4
					c-1.9,1.6-2.8,4.3-2.8,8.1V69h18.3L523.3,62.7L523.3,62.7z"/>
				<path class="st0" d="M665.9,80.2V125H598V80.2h-11.2V125h-68.2V80.2h-11.2V125h-41.7V80.2h-11.3h-5c-17.9,0-30.6,9.5-30.6,26.7
					c0,17.5,13.2,26.7,31,26.7h12.3h211.8c1.8,0,3.2-1.4,3.2-3.2V80.2H665.9z M454.4,124.8h-4.7c-12.5,0-20.9-5.4-20.9-17.9
					C428.8,93.5,437,89,450,89h4.4V124.8z"/>
				<path class="st0" d="M443.4,57.7h-8.2c-0.8,0-1.5,0.7-1.5,1.5v8.2c0,0.8,0.7,1.5,1.5,1.5h8.2c0.8,0,1.5-0.7,1.5-1.5v-8.2
					C444.9,58.4,444.3,57.7,443.4,57.7z"/>
				<path class="st0" d="M464.2,57.7H456c-0.8,0-1.5,0.7-1.5,1.5v8.2c0,0.8,0.7,1.5,1.5,1.5h8.2c0.8,0,1.5-0.7,1.5-1.5v-8.2
					C465.7,58.4,465,57.7,464.2,57.7z"/>
			</g>
			<g>
				<g>
					<path class="st0" d="M0,82.7c0-1.3,1.1-2.4,2.4-2.4H27c5.3,0,9.3,1.2,11.9,3.7c2.7,2.5,4,6.1,4,10.7c0,2.8-0.5,5.1-1.6,7.1
						s-2.6,3.5-4.5,4.5c2.7,0.8,4.7,2.2,6.1,4c1.4,1.9,2.1,4.4,2.1,7.8c0,5.1-1.5,9-4.4,11.6s-7.1,3.9-12.6,3.9H0V82.7z M25,102.4
						c5,0,7.5-2.3,7.5-6.8c0-2.4-0.6-4.2-1.9-5.3c-1.2-1.1-3.4-1.7-6.5-1.7H11.2v13.8H25z M25.5,125.4c2.9,0,5-0.6,6.3-1.8
						c1.3-1.2,1.9-3.2,1.9-6.1c0-2.4-0.7-4.2-2-5.3c-1.4-1.1-3.7-1.7-6.9-1.7H11.3v14.9H25.5z"/>
					<path class="st0" d="M57.8,80.3h35.9V89H66.6v13.7h24.1v8.6H66.6V125h27.1v8.6H55.4v-51C55.4,81.3,56.5,80.3,57.8,80.3z"/>
					<path class="st0" d="M108.9,80.3h35.9V89h-27.1v13.7h24.1v8.6h-24.1V125h27.1v8.6h-38.3v-51C106.4,81.3,107.5,80.3,108.9,80.3z
						"/>
					<path class="st0" d="M174.2,80.3h8.9c1,0,1.9,0.6,2.3,1.6l19.7,51.8h-11.6l-5.1-12.8h-19.7l-5,12.8H152l19.8-51.8
						C172.3,80.9,173.2,80.3,174.2,80.3z M186.8,112.2l-8.2-21.5l-8.1,21.5H186.8z"/>
					<path class="st0" d="M212.6,80.3h11.2v22.4h23.3V80.3h11.2v53.4h-11.2v-22.4h-23.3v22.4h-11.2V80.3z"/>
				</g>
			</g>
		</g>
		<path class="st0" d="M326.2,115.3v7.7c10.2-5.1,17.9-10.9,22.5-16.9c1,0.5,1.9,1,2.8,1.6c5.2,3,9.7,6.2,13.4,9.8
			c-3.6,4.8-8.1,9.2-13.3,13.1c-8.4,6.5-18.5,11.8-28.9,16V95.4c1.4,0.6,2.7,1.2,4.2,1.6c4.2,1.4,8.3,2.9,12.2,4.6
			c0.5-0.6,1-1.2,1.5-1.8c1-1.4,1.8-2.7,2.2-3.9l0.1-0.3c-4.3-1.9-8.9-3.6-13.5-5.1c-2.3-0.7-4.5-1.7-6.6-2.9c-2.5-1.4-4.8-3.1-7-5
			c-7.5-6.8-12.3-16.7-12.3-27.6V34.9c16.3,4.5,34.4,11.9,48.1,22.4c12.6,9.7,21.7,22.1,21.8,36.7c0,5.1-1.2,9.9-3.2,14.5
			c1.6,1.5,2.7,2.5,2.7,2.5c0.9,0.9,1.7,1.9,2.5,2.8c3.1-6.1,4.9-12.7,4.9-19.8c-0.1-17.6-10.9-32.3-26.2-43.5
			c-15.2-11.2-34.9-19-53.2-23.6c-2.2-0.6-4.4,1.1-4.4,3.4V55c0,15.1,7.6,28.4,19.2,36.4v29.5c-11.6,8-19.2,21.3-19.2,36.4v26.2
			c0,2.2,2,3.9,4.2,3.5c18.4-3.5,38.3-9.4,53.5-18.1c15.3-8.7,25.9-20.2,26.1-33.8c-0.1-6.5-2.5-12.5-6.8-18
			c-1.4-1.9-3.1-3.7-4.9-5.4c-4-3.8-8.9-7.3-14.4-10.4c-0.7-0.4-1.3-0.7-2-1.1c0.9-2.1,1.3-4.2,1.3-6.3c0-10.8-12.4-22.6-32.8-31.6
			c-2.3-1-5,0.7-5,3.2v12.3c2,2.2,4.4,4.2,7,5.8V71c15.3,7.6,23.8,16.4,23.9,22.9C346.6,93.9,348.1,103.6,326.2,115.3z M351.6,162.5
			c-13.7,7.9-31.7,13.5-48,16.9v-22c0-11,4.7-20.8,12.3-27.6v22c0,2.5,2.5,4.2,4.8,3.3c12-4.5,23.8-10.3,33.6-17.5
			c5.9-4.3,11.1-9.1,15.3-14.4c2.5,3.7,3.9,7.8,4,12C373.3,146.1,364.2,155.2,351.6,162.5z"/>
	</g>
</g>
<g id="Grid" class="st1">
	<g class="st2">
		<polyline class="st3" points="27.3,133.7 -114.2,133.7 -114.2,80.2 27.3,80.2 		"/>
		<polyline class="st3" points="27.3,27.1 -114.2,27.1 -114.2,0 27.3,0 		"/>
		<text transform="matrix(1 0 0 1 -129.8736 110.109)" class="st4" style="font-family:'ArialMT'; font-size:10.7277px;">x</text>
		<g>
			<path class="st4" d="M-142.1,8.7l0.3-0.6h1.2V13h-0.6V8.7H-142.1z M-136.3,8.3l-4.7,8.1l-0.5-0.3l4.7-8.1L-136.3,8.3z
				 M-134.4,15.8v0.6h-3.4l2.5-2.7c0.2-0.2,0.3-0.5,0.3-0.8c0-0.5-0.4-0.9-1-0.9s-1,0.4-1,0.9h-0.6c0-0.8,0.7-1.5,1.6-1.5
				s1.7,0.6,1.7,1.4c0,0.3-0.1,0.8-0.3,1l-1.8,1.9h2C-134.4,15.7-134.4,15.8-134.4,15.8z"/>
			<path class="st4" d="M-126.3,13.3l2.3,3h-1l-1.8-2.3l-1.8,2.3h-1l2.3-3l-2.2-2.8h1.1l1.7,2.2l1.7-2.2h1L-126.3,13.3z"/>
		</g>
		<g>
			<path class="st4" d="M-142.1,8.7l0.3-0.6h1.2V13h-0.6V8.7H-142.1z M-136.3,8.3l-4.7,8.1l-0.5-0.3l4.7-8.1L-136.3,8.3z
				 M-134.4,15.8v0.6h-3.4l2.5-2.7c0.2-0.2,0.3-0.5,0.3-0.8c0-0.5-0.4-0.9-1-0.9s-1,0.4-1,0.9h-0.6c0-0.8,0.7-1.5,1.6-1.5
				s1.7,0.6,1.7,1.4c0,0.3-0.1,0.8-0.3,1l-1.8,1.9h2C-134.4,15.7-134.4,15.8-134.4,15.8z"/>
			<path class="st4" d="M-126.3,13.3l2.3,3h-1l-1.8-2.3l-1.8,2.3h-1l2.3-3l-2.2-2.8h1.1l1.7,2.2l1.7-2.2h1L-126.3,13.3z"/>
		</g>
		<path class="st5" d="M260.7,80.3h35.9V89h-27.1v13.7h24.1v8.6h-24.1V125h27.1v8.6h-38.3v-51C258.3,81.3,259.4,80.3,260.7,80.3z"/>
		<path class="st5" d="M382.8,80.3h35.9V89h-27.1v13.7h24.1v8.6h-24.1V125h27.1v8.6h-38.3v-51C380.4,81.3,381.5,80.3,382.8,80.3z"/>
		<path class="st5" d="M108.9,133.7h35.9v8.7h-27.1V156h24.1v8.6h-24.1v13.8h27.1v8.6h-38.3v-51
			C106.4,134.7,107.5,133.7,108.9,133.7z"/>
		<path class="st5" d="M527.4,133.7h35.9v8.7h-27.1V156h24.1v8.6h-24.1v13.8h27.1v8.6H525v-51C525,134.7,526.1,133.7,527.4,133.7z"
			/>
		<path class="st5" d="M108.9,26.9h35.9v8.7h-27.1v13.7h24.1v8.6h-24.1v13.8h27.1v8.6h-38.3v-51C106.4,28,107.5,26.9,108.9,26.9z"/>
		<path class="st5" d="M527.4,26.9h35.9v8.7h-27.1v13.7h24.1v8.6h-24.1v13.8h27.1v8.6H525v-51C525,28,526.1,26.9,527.4,26.9z"/>
		<path class="st5" d="M-53.4,123.7V87.8h8.7v27.1H-31V90.8h8.6v24.1h13.8V87.8H0v38.3h-51C-52.3,126.1-53.4,125-53.4,123.7z"/>
		<path class="st5" d="M677.1,123.7V87.8h8.7v27.1h13.7V90.8h8.6v24.1h13.8V87.8h8.6v38.3h-51C678.2,126.1,677.1,125,677.1,123.7z"
			/>
		<line class="st3" x1="296.6" y1="0.1" x2="296.6" y2="213.7"/>
		<line class="st3" x1="0" y1="0.1" x2="0" y2="213.7"/>
		<line class="st3" x1="380.4" y1="0.1" x2="380.4" y2="213.7"/>
		<line class="st3" x1="677.1" y1="0.1" x2="677.1" y2="213.7"/>
		<rect x="-55" y="26.8" class="st3" width="785.6" height="160.2"/>
		<line class="st3" x1="-55" y1="133.7" x2="730.5" y2="133.7"/>
		<line class="st3" x1="-55" y1="80.3" x2="730.5" y2="80.3"/>
		<rect x="-55" y="0.1" class="st3" width="785.5" height="213.6"/>
		<g>
			<rect x="-53.4" y="133.6" class="st6" width="26.7" height="26.7"/>
			<rect x="-26.7" y="160.3" class="st6" width="26.7" height="26.7"/>
		</g>
		<rect y="187" class="st6" width="26.7" height="26.7"/>
		<rect y="0.1" class="st6" width="26.7" height="26.7"/>
		<g>
			<g>
				<rect x="703.8" y="133.6" class="st6" width="26.7" height="26.7"/>
				<rect x="677.1" y="160.3" class="st6" width="26.7" height="26.7"/>
			</g>
			<rect x="650.4" y="187" class="st6" width="26.7" height="26.7"/>
			<rect x="650.4" y="0.1" class="st6" width="26.7" height="26.7"/>
		</g>
		<path class="st6" d="M-111.5,80.3h35.9V89h-27.1v13.7h24.1v8.6h-24.1V125h27.1v8.6h-38.3v-51C-113.9,81.3-112.8,80.3-111.5,80.3z"
			/>
	</g>
</g>
</svg>
